 http://img845.imageshack.us/img845/5030/royaloperahouseromeoand.jpg

ROYAL OPERA HOUSE cinema ROMEO AND JULIET (SAT FEED)

Cast:
Romeo: Federico Bonelli
Juliet: Lauren Cuthbertson

Credits Music: Sergey Prokofiev
Conductor: Barry Wordsworth 


File/Media info:

Complete name: Romeo.And.Juliet.HDTV.1080i.ts
Format: MPEG-TS
File size: 19.6 GiB
Duration: 2h 46mn
Overall bit rate mode: Variable
Overall bit rate: 16.9 Mbps

Video
ID                       : 308 (0x134)
Menu ID                  : 1 (0x1)
Format                   : MPEG Video
Format version           : Version 2
Format profile           : Main@High
Format settings, BVOP    : Yes
Format settings, Matrix  : Custom
Format settings, GOP     : M=3, N=12
Codec ID                 : 2
Duration                 : 2h 46mn
Bit rate mode            : Variable
Bit rate                 : 15.6 Mbps
Maximum bit rate         : 16.0 Mbps
Width                    : 1 920 pixels
Height                   : 1 080 pixels
Display aspect ratio     : 16:9
Frame rate               : 25.000 fps
Color space              : YUV
Chroma subsampling       : 4:2:0
Bit depth                : 8 bits
Scan type                : Interlaced
Scan order               : Top Field First
Compression mode         : Lossy
Bits/(Pixel*Frame)       : 0.301
Stream size              : 18.1 GiB (92%)

Audio
ID                       : 256 (0x100)
Menu ID                  : 1 (0x1)
Format                   : AC-3
Format/Info              : Audio Coding 3
Mode extension           : CM (complete main)
Codec ID                 : 129
Duration                 : 2h 46mn
Bit rate mode            : Constant
Bit rate                 : 448 Kbps
Channel(s)               : 6 channels
Channel positions        : Front: L C R, Side: L R, LFE
Sampling rate            : 48.0 KHz
Bit depth                : 16 bits
Compression mode         : Lossy
Delay relative to video  : 17ms
Stream size              : 533 MiB (3%)
Language                 : English
